<mxfile host="Electron" agent="Mozilla/5.0 (Windows NT 10.0; Win64; x64) AppleWebKit/537.36 (KHTML, like Gecko) draw.io/24.7.17 Chrome/128.0.6613.36 Electron/32.0.1 Safari/537.36" version="24.7.17">
  <diagram name="Page-1" id="c37626ed-c26b-45fb-9056-f9ebc6bb27b6">
    <mxGraphModel dx="2200" dy="2280" grid="1" gridSize="10" guides="1" tooltips="1" connect="1" arrows="1" fold="1" page="1" pageScale="1" pageWidth="1100" pageHeight="850" background="#1A1A1A" math="0" shadow="1">
      <root>
        <mxCell id="0" />
        <mxCell id="1" parent="0" />
        <mxCell id="u2964-6fBKXhcLyn3xb5-1" value="" style="shape=mxgraph.cisco.routers.router;html=1;pointerEvents=1;dashed=0;fillColor=#036897;strokeColor=#ffffff;strokeWidth=2;verticalLabelPosition=bottom;verticalAlign=top;align=center;outlineConnect=0;" vertex="1" parent="1">
          <mxGeometry x="846" y="170" width="78" height="53" as="geometry" />
        </mxCell>
        <mxCell id="u2964-6fBKXhcLyn3xb5-2" value="" style="shape=mxgraph.cisco.routers.router;html=1;pointerEvents=1;dashed=0;fillColor=#036897;strokeColor=#ffffff;strokeWidth=2;verticalLabelPosition=bottom;verticalAlign=top;align=center;outlineConnect=0;" vertex="1" parent="1">
          <mxGeometry x="186" y="170" width="78" height="53" as="geometry" />
        </mxCell>
        <mxCell id="u2964-6fBKXhcLyn3xb5-3" value="" style="shape=mxgraph.cisco.routers.router;html=1;pointerEvents=1;dashed=0;fillColor=#036897;strokeColor=#ffffff;strokeWidth=2;verticalLabelPosition=bottom;verticalAlign=top;align=center;outlineConnect=0;" vertex="1" parent="1">
          <mxGeometry x="186" y="600" width="78" height="53" as="geometry" />
        </mxCell>
        <mxCell id="u2964-6fBKXhcLyn3xb5-4" value="" style="shape=mxgraph.cisco.routers.router;html=1;pointerEvents=1;dashed=0;fillColor=#036897;strokeColor=#ffffff;strokeWidth=2;verticalLabelPosition=bottom;verticalAlign=top;align=center;outlineConnect=0;" vertex="1" parent="1">
          <mxGeometry x="846" y="600" width="78" height="53" as="geometry" />
        </mxCell>
        <mxCell id="u2964-6fBKXhcLyn3xb5-9" value="" style="endArrow=none;dashed=1;html=1;rounded=0;entryX=0;entryY=0.5;entryDx=0;entryDy=0;entryPerimeter=0;" edge="1" parent="1" target="u2964-6fBKXhcLyn3xb5-1">
          <mxGeometry width="50" height="50" relative="1" as="geometry">
            <mxPoint x="266" y="620" as="sourcePoint" />
            <mxPoint x="566" y="400" as="targetPoint" />
          </mxGeometry>
        </mxCell>
        <mxCell id="u2964-6fBKXhcLyn3xb5-10" value="" style="endArrow=none;dashed=1;html=1;rounded=0;entryX=1;entryY=0.5;entryDx=0;entryDy=0;entryPerimeter=0;exitX=0;exitY=0.5;exitDx=0;exitDy=0;exitPerimeter=0;" edge="1" parent="1" source="u2964-6fBKXhcLyn3xb5-4" target="u2964-6fBKXhcLyn3xb5-2">
          <mxGeometry width="50" height="50" relative="1" as="geometry">
            <mxPoint x="837" y="636.5" as="sourcePoint" />
            <mxPoint x="254.99999999999977" y="206.5" as="targetPoint" />
            <Array as="points">
              <mxPoint x="566" y="420" />
            </Array>
          </mxGeometry>
        </mxCell>
        <mxCell id="u2964-6fBKXhcLyn3xb5-11" value="" style="endArrow=none;html=1;rounded=0;entryX=0.5;entryY=1;entryDx=0;entryDy=0;entryPerimeter=0;exitX=0.5;exitY=0;exitDx=0;exitDy=0;exitPerimeter=0;" edge="1" parent="1" source="u2964-6fBKXhcLyn3xb5-3" target="u2964-6fBKXhcLyn3xb5-2">
          <mxGeometry width="50" height="50" relative="1" as="geometry">
            <mxPoint x="516" y="420" as="sourcePoint" />
            <mxPoint x="566" y="370" as="targetPoint" />
          </mxGeometry>
        </mxCell>
        <mxCell id="u2964-6fBKXhcLyn3xb5-12" value="" style="endArrow=none;html=1;rounded=0;entryX=0;entryY=0.5;entryDx=0;entryDy=0;entryPerimeter=0;exitX=1;exitY=0.5;exitDx=0;exitDy=0;exitPerimeter=0;shadow=0;flowAnimation=0;" edge="1" parent="1" source="u2964-6fBKXhcLyn3xb5-2" target="u2964-6fBKXhcLyn3xb5-1">
          <mxGeometry width="50" height="50" relative="1" as="geometry">
            <mxPoint x="516" y="420" as="sourcePoint" />
            <mxPoint x="566" y="370" as="targetPoint" />
          </mxGeometry>
        </mxCell>
        <mxCell id="u2964-6fBKXhcLyn3xb5-13" value="" style="endArrow=none;html=1;rounded=0;entryX=0.5;entryY=0;entryDx=0;entryDy=0;entryPerimeter=0;exitX=0.5;exitY=1;exitDx=0;exitDy=0;exitPerimeter=0;" edge="1" parent="1" source="u2964-6fBKXhcLyn3xb5-1" target="u2964-6fBKXhcLyn3xb5-4">
          <mxGeometry width="50" height="50" relative="1" as="geometry">
            <mxPoint x="516" y="420" as="sourcePoint" />
            <mxPoint x="566" y="370" as="targetPoint" />
          </mxGeometry>
        </mxCell>
        <mxCell id="u2964-6fBKXhcLyn3xb5-14" value="" style="endArrow=none;html=1;rounded=0;entryX=0;entryY=0.5;entryDx=0;entryDy=0;entryPerimeter=0;exitX=1;exitY=0.5;exitDx=0;exitDy=0;exitPerimeter=0;" edge="1" parent="1" source="u2964-6fBKXhcLyn3xb5-3" target="u2964-6fBKXhcLyn3xb5-4">
          <mxGeometry width="50" height="50" relative="1" as="geometry">
            <mxPoint x="516" y="420" as="sourcePoint" />
            <mxPoint x="566" y="370" as="targetPoint" />
          </mxGeometry>
        </mxCell>
        <mxCell id="u2964-6fBKXhcLyn3xb5-15" value="10.10.10.16" style="text;html=1;align=center;verticalAlign=middle;whiteSpace=wrap;rounded=0;spacingTop=0;textShadow=0;labelBorderColor=none;fontColor=#FF6666;rotation=0;" vertex="1" parent="1">
          <mxGeometry x="526" y="170" width="60" height="30" as="geometry" />
        </mxCell>
        <mxCell id="u2964-6fBKXhcLyn3xb5-20" value="Router 1" style="text;html=1;align=center;verticalAlign=middle;whiteSpace=wrap;rounded=0;" vertex="1" parent="1">
          <mxGeometry x="115.5" y="177" width="60" height="30" as="geometry" />
        </mxCell>
        <mxCell id="u2964-6fBKXhcLyn3xb5-21" value="Router 2" style="text;html=1;align=center;verticalAlign=middle;whiteSpace=wrap;rounded=0;" vertex="1" parent="1">
          <mxGeometry x="940" y="181.5" width="60" height="30" as="geometry" />
        </mxCell>
        <mxCell id="u2964-6fBKXhcLyn3xb5-22" value="&lt;p style=&quot;line-height: 120%;&quot;&gt;10.10.10.32&lt;/p&gt;" style="text;html=1;align=center;verticalAlign=middle;whiteSpace=wrap;rounded=0;direction=east;rotation=270;flipH=0;flipV=1;fontColor=#FF6666;" vertex="1" parent="1">
          <mxGeometry x="183" y="410" width="60" height="30" as="geometry" />
        </mxCell>
        <mxCell id="u2964-6fBKXhcLyn3xb5-23" value="10.10.10.24" style="text;html=1;align=center;verticalAlign=middle;whiteSpace=wrap;rounded=0;direction=west;rotation=90;fontColor=#FF6666;" vertex="1" parent="1">
          <mxGeometry x="867" y="410" width="60" height="30" as="geometry" />
        </mxCell>
        <mxCell id="u2964-6fBKXhcLyn3xb5-24" value="10.10.10.36" style="text;html=1;align=center;verticalAlign=middle;whiteSpace=wrap;rounded=0;fontColor=#FF6666;" vertex="1" parent="1">
          <mxGeometry x="516" y="625" width="60" height="30" as="geometry" />
        </mxCell>
        <mxCell id="u2964-6fBKXhcLyn3xb5-25" value="10.10.10.28" style="text;html=1;align=center;verticalAlign=middle;whiteSpace=wrap;rounded=0;rotation=35;fontColor=#FF6666;" vertex="1" parent="1">
          <mxGeometry x="406" y="290" width="60" height="30" as="geometry" />
        </mxCell>
        <mxCell id="u2964-6fBKXhcLyn3xb5-27" value="10.10.10.20" style="text;html=1;align=center;verticalAlign=middle;whiteSpace=wrap;rounded=0;rotation=325;fontColor=#FF6666;" vertex="1" parent="1">
          <mxGeometry x="646" y="290" width="60" height="30" as="geometry" />
        </mxCell>
        <mxCell id="u2964-6fBKXhcLyn3xb5-28" value="Router 3" style="text;html=1;align=center;verticalAlign=middle;whiteSpace=wrap;rounded=0;" vertex="1" parent="1">
          <mxGeometry x="115.5" y="623" width="60" height="30" as="geometry" />
        </mxCell>
        <mxCell id="u2964-6fBKXhcLyn3xb5-29" value="Router 4" style="text;html=1;align=center;verticalAlign=middle;whiteSpace=wrap;rounded=0;" vertex="1" parent="1">
          <mxGeometry x="940" y="611.5" width="60" height="30" as="geometry" />
        </mxCell>
        <mxCell id="u2964-6fBKXhcLyn3xb5-32" value="" style="shape=mxgraph.cisco.switches.layer_3_switch;sketch=0;html=1;pointerEvents=1;dashed=0;fillColor=#036897;strokeColor=#ffffff;strokeWidth=2;verticalLabelPosition=bottom;verticalAlign=top;align=center;outlineConnect=0;" vertex="1" parent="1">
          <mxGeometry x="193" y="-107" width="64" height="64" as="geometry" />
        </mxCell>
        <mxCell id="u2964-6fBKXhcLyn3xb5-33" value="" style="shape=mxgraph.cisco.switches.layer_3_switch;sketch=0;html=1;pointerEvents=1;dashed=0;fillColor=#036897;strokeColor=#ffffff;strokeWidth=2;verticalLabelPosition=bottom;verticalAlign=top;align=center;outlineConnect=0;" vertex="1" parent="1">
          <mxGeometry x="853" y="-107" width="64" height="64" as="geometry" />
        </mxCell>
        <mxCell id="u2964-6fBKXhcLyn3xb5-34" value="" style="shape=mxgraph.cisco.switches.layer_3_switch;sketch=0;html=1;pointerEvents=1;dashed=0;fillColor=#036897;strokeColor=#ffffff;strokeWidth=2;verticalLabelPosition=bottom;verticalAlign=top;align=center;outlineConnect=0;" vertex="1" parent="1">
          <mxGeometry x="193" y="883" width="64" height="64" as="geometry" />
        </mxCell>
        <mxCell id="u2964-6fBKXhcLyn3xb5-35" value="" style="shape=mxgraph.cisco.switches.layer_3_switch;sketch=0;html=1;pointerEvents=1;dashed=0;fillColor=#036897;strokeColor=#ffffff;strokeWidth=2;verticalLabelPosition=bottom;verticalAlign=top;align=center;outlineConnect=0;" vertex="1" parent="1">
          <mxGeometry x="853" y="883" width="64" height="64" as="geometry" />
        </mxCell>
        <mxCell id="u2964-6fBKXhcLyn3xb5-36" value="" style="endArrow=none;html=1;rounded=0;entryX=0.5;entryY=0;entryDx=0;entryDy=0;entryPerimeter=0;exitX=0.5;exitY=1;exitDx=0;exitDy=0;exitPerimeter=0;" edge="1" parent="1" source="u2964-6fBKXhcLyn3xb5-4" target="u2964-6fBKXhcLyn3xb5-35">
          <mxGeometry width="50" height="50" relative="1" as="geometry">
            <mxPoint x="570" y="590" as="sourcePoint" />
            <mxPoint x="620" y="540" as="targetPoint" />
          </mxGeometry>
        </mxCell>
        <mxCell id="u2964-6fBKXhcLyn3xb5-37" value="" style="endArrow=none;html=1;rounded=0;entryX=0.5;entryY=1;entryDx=0;entryDy=0;entryPerimeter=0;exitX=0.5;exitY=0;exitDx=0;exitDy=0;exitPerimeter=0;" edge="1" parent="1" source="u2964-6fBKXhcLyn3xb5-34" target="u2964-6fBKXhcLyn3xb5-3">
          <mxGeometry width="50" height="50" relative="1" as="geometry">
            <mxPoint x="570" y="590" as="sourcePoint" />
            <mxPoint x="620" y="540" as="targetPoint" />
          </mxGeometry>
        </mxCell>
        <mxCell id="u2964-6fBKXhcLyn3xb5-38" value="" style="endArrow=none;html=1;rounded=0;entryX=0.5;entryY=1;entryDx=0;entryDy=0;entryPerimeter=0;exitX=0.5;exitY=0;exitDx=0;exitDy=0;exitPerimeter=0;" edge="1" parent="1" source="u2964-6fBKXhcLyn3xb5-2" target="u2964-6fBKXhcLyn3xb5-32">
          <mxGeometry width="50" height="50" relative="1" as="geometry">
            <mxPoint x="570" y="340" as="sourcePoint" />
            <mxPoint x="620" y="290" as="targetPoint" />
          </mxGeometry>
        </mxCell>
        <mxCell id="u2964-6fBKXhcLyn3xb5-39" value="" style="endArrow=none;html=1;rounded=0;entryX=0.5;entryY=1;entryDx=0;entryDy=0;entryPerimeter=0;" edge="1" parent="1" source="u2964-6fBKXhcLyn3xb5-1" target="u2964-6fBKXhcLyn3xb5-33">
          <mxGeometry width="50" height="50" relative="1" as="geometry">
            <mxPoint x="570" y="340" as="sourcePoint" />
            <mxPoint x="620" y="290" as="targetPoint" />
          </mxGeometry>
        </mxCell>
        <mxCell id="u2964-6fBKXhcLyn3xb5-40" value="" style="endArrow=none;html=1;rounded=0;entryX=0.95;entryY=0.94;entryDx=0;entryDy=0;entryPerimeter=0;exitX=0;exitY=0.5;exitDx=0;exitDy=0;exitPerimeter=0;" edge="1" parent="1" source="u2964-6fBKXhcLyn3xb5-1" target="u2964-6fBKXhcLyn3xb5-32">
          <mxGeometry width="50" height="50" relative="1" as="geometry">
            <mxPoint x="570" y="340" as="sourcePoint" />
            <mxPoint x="620" y="290" as="targetPoint" />
          </mxGeometry>
        </mxCell>
        <mxCell id="u2964-6fBKXhcLyn3xb5-41" value="" style="endArrow=none;html=1;rounded=0;entryX=0;entryY=1;entryDx=0;entryDy=0;entryPerimeter=0;exitX=1;exitY=0.5;exitDx=0;exitDy=0;exitPerimeter=0;" edge="1" parent="1" source="u2964-6fBKXhcLyn3xb5-2" target="u2964-6fBKXhcLyn3xb5-33">
          <mxGeometry width="50" height="50" relative="1" as="geometry">
            <mxPoint x="570" y="340" as="sourcePoint" />
            <mxPoint x="620" y="290" as="targetPoint" />
          </mxGeometry>
        </mxCell>
        <mxCell id="u2964-6fBKXhcLyn3xb5-42" value="" style="endArrow=none;html=1;rounded=0;entryX=0;entryY=0.5;entryDx=0;entryDy=0;entryPerimeter=0;exitX=1;exitY=0;exitDx=0;exitDy=0;exitPerimeter=0;" edge="1" parent="1" source="u2964-6fBKXhcLyn3xb5-34" target="u2964-6fBKXhcLyn3xb5-4">
          <mxGeometry width="50" height="50" relative="1" as="geometry">
            <mxPoint x="570" y="650" as="sourcePoint" />
            <mxPoint x="620" y="600" as="targetPoint" />
          </mxGeometry>
        </mxCell>
        <mxCell id="u2964-6fBKXhcLyn3xb5-43" value="" style="endArrow=none;html=1;rounded=0;entryX=0.08;entryY=0.05;entryDx=0;entryDy=0;entryPerimeter=0;exitX=1;exitY=0.5;exitDx=0;exitDy=0;exitPerimeter=0;" edge="1" parent="1" source="u2964-6fBKXhcLyn3xb5-3" target="u2964-6fBKXhcLyn3xb5-35">
          <mxGeometry width="50" height="50" relative="1" as="geometry">
            <mxPoint x="550" y="590" as="sourcePoint" />
            <mxPoint x="600" y="540" as="targetPoint" />
          </mxGeometry>
        </mxCell>
        <mxCell id="u2964-6fBKXhcLyn3xb5-48" value="&lt;p style=&quot;line-height: 120%;&quot;&gt;10.10.10.40&lt;/p&gt;" style="text;html=1;align=center;verticalAlign=middle;whiteSpace=wrap;rounded=0;direction=east;rotation=270;flipH=0;flipV=1;fontColor=#FF6666;" vertex="1" parent="1">
          <mxGeometry x="183" y="760" width="60" height="30" as="geometry" />
        </mxCell>
        <mxCell id="u2964-6fBKXhcLyn3xb5-49" value="10.10.10.52" style="text;html=1;align=center;verticalAlign=middle;whiteSpace=wrap;rounded=0;direction=west;rotation=90;fontColor=#FF6666;" vertex="1" parent="1">
          <mxGeometry x="867" y="760" width="60" height="30" as="geometry" />
        </mxCell>
        <mxCell id="u2964-6fBKXhcLyn3xb5-50" value="10.10.10.12" style="text;html=1;align=center;verticalAlign=middle;whiteSpace=wrap;rounded=0;direction=west;rotation=90;fontColor=#FF6666;" vertex="1" parent="1">
          <mxGeometry x="867" y="50" width="60" height="30" as="geometry" />
        </mxCell>
        <mxCell id="u2964-6fBKXhcLyn3xb5-51" value="&lt;p style=&quot;line-height: 120%;&quot;&gt;10.10.10.0&lt;/p&gt;" style="text;html=1;align=center;verticalAlign=middle;whiteSpace=wrap;rounded=0;direction=east;rotation=270;flipH=0;flipV=1;fontColor=#FF6666;" vertex="1" parent="1">
          <mxGeometry x="183" y="50" width="60" height="30" as="geometry" />
        </mxCell>
        <mxCell id="u2964-6fBKXhcLyn3xb5-52" value="10.10.10.4" style="text;html=1;align=center;verticalAlign=middle;whiteSpace=wrap;rounded=0;rotation=25;fontColor=#FF6666;" vertex="1" parent="1">
          <mxGeometry x="440" y="10" width="60" height="30" as="geometry" />
        </mxCell>
        <mxCell id="u2964-6fBKXhcLyn3xb5-53" value="10.10.10.8" style="text;html=1;align=center;verticalAlign=middle;whiteSpace=wrap;rounded=0;rotation=340;fontColor=#FF6666;" vertex="1" parent="1">
          <mxGeometry x="610" y="10" width="60" height="30" as="geometry" />
        </mxCell>
        <mxCell id="u2964-6fBKXhcLyn3xb5-54" value="10.10.10.48" style="text;html=1;align=center;verticalAlign=middle;whiteSpace=wrap;rounded=0;rotation=340;fontColor=#FF6666;" vertex="1" parent="1">
          <mxGeometry x="406" y="780" width="60" height="30" as="geometry" />
        </mxCell>
        <mxCell id="u2964-6fBKXhcLyn3xb5-55" value="10.10.10.44" style="text;html=1;align=center;verticalAlign=middle;whiteSpace=wrap;rounded=0;rotation=25;fontColor=#FF6666;" vertex="1" parent="1">
          <mxGeometry x="646" y="780" width="60" height="30" as="geometry" />
        </mxCell>
        <mxCell id="u2964-6fBKXhcLyn3xb5-56" value="L3 Switch 2" style="text;html=1;align=center;verticalAlign=middle;whiteSpace=wrap;rounded=0;" vertex="1" parent="1">
          <mxGeometry x="932.5" y="-90" width="75" height="30" as="geometry" />
        </mxCell>
        <mxCell id="u2964-6fBKXhcLyn3xb5-57" value="L3 Switch 1" style="text;html=1;align=center;verticalAlign=middle;whiteSpace=wrap;rounded=0;" vertex="1" parent="1">
          <mxGeometry x="108" y="-90" width="75" height="30" as="geometry" />
        </mxCell>
        <mxCell id="u2964-6fBKXhcLyn3xb5-58" value="L3 Switch 4" style="text;html=1;align=center;verticalAlign=middle;whiteSpace=wrap;rounded=0;" vertex="1" parent="1">
          <mxGeometry x="932.5" y="900" width="75" height="30" as="geometry" />
        </mxCell>
        <mxCell id="u2964-6fBKXhcLyn3xb5-59" value="L3 Switch 3" style="text;html=1;align=center;verticalAlign=middle;whiteSpace=wrap;rounded=0;" vertex="1" parent="1">
          <mxGeometry x="100.5" y="900" width="75" height="30" as="geometry" />
        </mxCell>
        <mxCell id="u2964-6fBKXhcLyn3xb5-60" value="" style="pointerEvents=1;shadow=0;dashed=0;html=1;strokeColor=none;fillColor=#4495D1;labelPosition=center;verticalLabelPosition=bottom;verticalAlign=top;align=center;outlineConnect=0;shape=mxgraph.veeam.2d.switch;" vertex="1" parent="1">
          <mxGeometry x="10" y="1229.2" width="64" height="10.8" as="geometry" />
        </mxCell>
        <mxCell id="u2964-6fBKXhcLyn3xb5-61" value="" style="pointerEvents=1;shadow=0;dashed=0;html=1;strokeColor=none;fillColor=#4495D1;labelPosition=center;verticalLabelPosition=bottom;verticalAlign=top;align=center;outlineConnect=0;shape=mxgraph.veeam.2d.switch;" vertex="1" parent="1">
          <mxGeometry x="855" y="1229.2" width="64" height="10.8" as="geometry" />
        </mxCell>
        <mxCell id="u2964-6fBKXhcLyn3xb5-62" value="" style="pointerEvents=1;shadow=0;dashed=0;html=1;strokeColor=none;fillColor=#4495D1;labelPosition=center;verticalLabelPosition=bottom;verticalAlign=top;align=center;outlineConnect=0;shape=mxgraph.veeam.2d.switch;" vertex="1" parent="1">
          <mxGeometry x="632" y="1230" width="64" height="10.8" as="geometry" />
        </mxCell>
        <mxCell id="u2964-6fBKXhcLyn3xb5-63" value="" style="pointerEvents=1;shadow=0;dashed=0;html=1;strokeColor=none;fillColor=#4495D1;labelPosition=center;verticalLabelPosition=bottom;verticalAlign=top;align=center;outlineConnect=0;shape=mxgraph.veeam.2d.switch;" vertex="1" parent="1">
          <mxGeometry x="362" y="1229.2" width="64" height="10.8" as="geometry" />
        </mxCell>
        <mxCell id="u2964-6fBKXhcLyn3xb5-64" value="" style="pointerEvents=1;shadow=0;dashed=0;html=1;strokeColor=none;fillColor=#4495D1;labelPosition=center;verticalLabelPosition=bottom;verticalAlign=top;align=center;outlineConnect=0;shape=mxgraph.veeam.2d.switch;" vertex="1" parent="1">
          <mxGeometry x="188" y="1230" width="64" height="10.8" as="geometry" />
        </mxCell>
        <mxCell id="u2964-6fBKXhcLyn3xb5-65" value="" style="pointerEvents=1;shadow=0;dashed=0;html=1;strokeColor=none;fillColor=#4495D1;labelPosition=center;verticalLabelPosition=bottom;verticalAlign=top;align=center;outlineConnect=0;shape=mxgraph.veeam.2d.switch;" vertex="1" parent="1">
          <mxGeometry x="1020" y="1229.2" width="64" height="10.8" as="geometry" />
        </mxCell>
        <mxCell id="u2964-6fBKXhcLyn3xb5-66" value="" style="pointerEvents=1;shadow=0;dashed=0;html=1;strokeColor=none;fillColor=#4495D1;labelPosition=center;verticalLabelPosition=bottom;verticalAlign=top;align=center;outlineConnect=0;shape=mxgraph.veeam.2d.switch;" vertex="1" parent="1">
          <mxGeometry x="12" y="-340" width="64" height="10.8" as="geometry" />
        </mxCell>
        <mxCell id="u2964-6fBKXhcLyn3xb5-67" value="" style="pointerEvents=1;shadow=0;dashed=0;html=1;strokeColor=none;fillColor=#4495D1;labelPosition=center;verticalLabelPosition=bottom;verticalAlign=top;align=center;outlineConnect=0;shape=mxgraph.veeam.2d.switch;" vertex="1" parent="1">
          <mxGeometry x="854" y="-339" width="64" height="10.8" as="geometry" />
        </mxCell>
        <mxCell id="u2964-6fBKXhcLyn3xb5-68" value="" style="pointerEvents=1;shadow=0;dashed=0;html=1;strokeColor=none;fillColor=#4495D1;labelPosition=center;verticalLabelPosition=bottom;verticalAlign=top;align=center;outlineConnect=0;shape=mxgraph.veeam.2d.switch;" vertex="1" parent="1">
          <mxGeometry x="641" y="-339.20000000000005" width="64" height="10.8" as="geometry" />
        </mxCell>
        <mxCell id="u2964-6fBKXhcLyn3xb5-69" value="" style="pointerEvents=1;shadow=0;dashed=0;html=1;strokeColor=none;fillColor=#4495D1;labelPosition=center;verticalLabelPosition=bottom;verticalAlign=top;align=center;outlineConnect=0;shape=mxgraph.veeam.2d.switch;" vertex="1" parent="1">
          <mxGeometry x="371" y="-340" width="64" height="10.8" as="geometry" />
        </mxCell>
        <mxCell id="u2964-6fBKXhcLyn3xb5-70" value="" style="pointerEvents=1;shadow=0;dashed=0;html=1;strokeColor=none;fillColor=#4495D1;labelPosition=center;verticalLabelPosition=bottom;verticalAlign=top;align=center;outlineConnect=0;shape=mxgraph.veeam.2d.switch;" vertex="1" parent="1">
          <mxGeometry x="192" y="-339.20000000000005" width="64" height="10.8" as="geometry" />
        </mxCell>
        <mxCell id="u2964-6fBKXhcLyn3xb5-71" value="" style="pointerEvents=1;shadow=0;dashed=0;html=1;strokeColor=none;fillColor=#4495D1;labelPosition=center;verticalLabelPosition=bottom;verticalAlign=top;align=center;outlineConnect=0;shape=mxgraph.veeam.2d.switch;" vertex="1" parent="1">
          <mxGeometry x="1023" y="-340" width="64" height="10.8" as="geometry" />
        </mxCell>
        <mxCell id="u2964-6fBKXhcLyn3xb5-73" value="" style="endArrow=none;dashed=1;html=1;rounded=0;exitX=0.583;exitY=0.103;exitDx=0;exitDy=0;exitPerimeter=0;" edge="1" parent="1" source="u2964-6fBKXhcLyn3xb5-64" target="u2964-6fBKXhcLyn3xb5-34">
          <mxGeometry width="50" height="50" relative="1" as="geometry">
            <mxPoint x="220" y="1110" as="sourcePoint" />
            <mxPoint x="270" y="1060" as="targetPoint" />
          </mxGeometry>
        </mxCell>
        <mxCell id="u2964-6fBKXhcLyn3xb5-74" value="" style="endArrow=none;dashed=1;html=1;rounded=0;entryX=0.5;entryY=1;entryDx=0;entryDy=0;entryPerimeter=0;" edge="1" parent="1" source="u2964-6fBKXhcLyn3xb5-60" target="u2964-6fBKXhcLyn3xb5-34">
          <mxGeometry width="50" height="50" relative="1" as="geometry">
            <mxPoint x="470" y="1120" as="sourcePoint" />
            <mxPoint x="520" y="1070" as="targetPoint" />
          </mxGeometry>
        </mxCell>
        <mxCell id="u2964-6fBKXhcLyn3xb5-75" value="" style="endArrow=none;dashed=1;html=1;rounded=0;entryX=0.5;entryY=1;entryDx=0;entryDy=0;entryPerimeter=0;" edge="1" parent="1" source="u2964-6fBKXhcLyn3xb5-63" target="u2964-6fBKXhcLyn3xb5-34">
          <mxGeometry width="50" height="50" relative="1" as="geometry">
            <mxPoint x="470" y="1120" as="sourcePoint" />
            <mxPoint x="520" y="1070" as="targetPoint" />
          </mxGeometry>
        </mxCell>
        <mxCell id="u2964-6fBKXhcLyn3xb5-76" value="" style="endArrow=none;dashed=1;html=1;rounded=0;entryX=0.5;entryY=1;entryDx=0;entryDy=0;entryPerimeter=0;" edge="1" parent="1" source="u2964-6fBKXhcLyn3xb5-65" target="u2964-6fBKXhcLyn3xb5-35">
          <mxGeometry width="50" height="50" relative="1" as="geometry">
            <mxPoint x="480" y="1120" as="sourcePoint" />
            <mxPoint x="530" y="1070" as="targetPoint" />
          </mxGeometry>
        </mxCell>
        <mxCell id="u2964-6fBKXhcLyn3xb5-77" value="" style="endArrow=none;dashed=1;html=1;rounded=0;entryX=0.5;entryY=1;entryDx=0;entryDy=0;entryPerimeter=0;" edge="1" parent="1" source="u2964-6fBKXhcLyn3xb5-61" target="u2964-6fBKXhcLyn3xb5-35">
          <mxGeometry width="50" height="50" relative="1" as="geometry">
            <mxPoint x="480" y="1120" as="sourcePoint" />
            <mxPoint x="530" y="1070" as="targetPoint" />
          </mxGeometry>
        </mxCell>
        <mxCell id="u2964-6fBKXhcLyn3xb5-78" value="" style="endArrow=none;dashed=1;html=1;rounded=0;entryX=0.5;entryY=1;entryDx=0;entryDy=0;entryPerimeter=0;" edge="1" parent="1" source="u2964-6fBKXhcLyn3xb5-62" target="u2964-6fBKXhcLyn3xb5-35">
          <mxGeometry width="50" height="50" relative="1" as="geometry">
            <mxPoint x="480" y="1120" as="sourcePoint" />
            <mxPoint x="530" y="1070" as="targetPoint" />
          </mxGeometry>
        </mxCell>
        <mxCell id="u2964-6fBKXhcLyn3xb5-79" value="" style="endArrow=none;dashed=1;html=1;rounded=0;entryX=0.5;entryY=0;entryDx=0;entryDy=0;entryPerimeter=0;" edge="1" parent="1" source="u2964-6fBKXhcLyn3xb5-71" target="u2964-6fBKXhcLyn3xb5-32">
          <mxGeometry width="50" height="50" relative="1" as="geometry">
            <mxPoint x="490" y="-220" as="sourcePoint" />
            <mxPoint x="540" y="-270" as="targetPoint" />
          </mxGeometry>
        </mxCell>
        <mxCell id="u2964-6fBKXhcLyn3xb5-80" value="" style="endArrow=none;dashed=1;html=1;rounded=0;exitX=0.5;exitY=0;exitDx=0;exitDy=0;exitPerimeter=0;" edge="1" parent="1" source="u2964-6fBKXhcLyn3xb5-33" target="u2964-6fBKXhcLyn3xb5-71">
          <mxGeometry width="50" height="50" relative="1" as="geometry">
            <mxPoint x="490" y="-220" as="sourcePoint" />
            <mxPoint x="540" y="-270" as="targetPoint" />
          </mxGeometry>
        </mxCell>
        <mxCell id="u2964-6fBKXhcLyn3xb5-81" value="" style="endArrow=none;dashed=1;html=1;rounded=0;exitX=0.5;exitY=0;exitDx=0;exitDy=0;exitPerimeter=0;" edge="1" parent="1" source="u2964-6fBKXhcLyn3xb5-33" target="u2964-6fBKXhcLyn3xb5-67">
          <mxGeometry width="50" height="50" relative="1" as="geometry">
            <mxPoint x="490" y="-220" as="sourcePoint" />
            <mxPoint x="540" y="-270" as="targetPoint" />
          </mxGeometry>
        </mxCell>
        <mxCell id="u2964-6fBKXhcLyn3xb5-82" value="" style="endArrow=none;dashed=1;html=1;rounded=0;exitX=0.5;exitY=0;exitDx=0;exitDy=0;exitPerimeter=0;" edge="1" parent="1" source="u2964-6fBKXhcLyn3xb5-33" target="u2964-6fBKXhcLyn3xb5-68">
          <mxGeometry width="50" height="50" relative="1" as="geometry">
            <mxPoint x="490" y="-220" as="sourcePoint" />
            <mxPoint x="540" y="-270" as="targetPoint" />
          </mxGeometry>
        </mxCell>
        <mxCell id="u2964-6fBKXhcLyn3xb5-83" value="" style="endArrow=none;dashed=1;html=1;rounded=0;exitX=0.5;exitY=0;exitDx=0;exitDy=0;exitPerimeter=0;" edge="1" parent="1" source="u2964-6fBKXhcLyn3xb5-32" target="u2964-6fBKXhcLyn3xb5-69">
          <mxGeometry width="50" height="50" relative="1" as="geometry">
            <mxPoint x="490" y="-220" as="sourcePoint" />
            <mxPoint x="540" y="-270" as="targetPoint" />
          </mxGeometry>
        </mxCell>
        <mxCell id="u2964-6fBKXhcLyn3xb5-84" value="" style="endArrow=none;dashed=1;html=1;rounded=0;exitX=0.5;exitY=0;exitDx=0;exitDy=0;exitPerimeter=0;" edge="1" parent="1" source="u2964-6fBKXhcLyn3xb5-32" target="u2964-6fBKXhcLyn3xb5-70">
          <mxGeometry width="50" height="50" relative="1" as="geometry">
            <mxPoint x="490" y="-220" as="sourcePoint" />
            <mxPoint x="540" y="-270" as="targetPoint" />
          </mxGeometry>
        </mxCell>
        <mxCell id="u2964-6fBKXhcLyn3xb5-85" value="" style="endArrow=none;dashed=1;html=1;rounded=0;exitX=0.5;exitY=0;exitDx=0;exitDy=0;exitPerimeter=0;" edge="1" parent="1" source="u2964-6fBKXhcLyn3xb5-32" target="u2964-6fBKXhcLyn3xb5-66">
          <mxGeometry width="50" height="50" relative="1" as="geometry">
            <mxPoint x="490" y="-220" as="sourcePoint" />
            <mxPoint x="540" y="-270" as="targetPoint" />
          </mxGeometry>
        </mxCell>
        <mxCell id="u2964-6fBKXhcLyn3xb5-87" value="" style="endArrow=none;dashed=1;html=1;rounded=0;entryX=0.5;entryY=0;entryDx=0;entryDy=0;entryPerimeter=0;" edge="1" parent="1" source="u2964-6fBKXhcLyn3xb5-69" target="u2964-6fBKXhcLyn3xb5-33">
          <mxGeometry width="50" height="50" relative="1" as="geometry">
            <mxPoint x="510" y="-370" as="sourcePoint" />
            <mxPoint x="560" y="-420" as="targetPoint" />
          </mxGeometry>
        </mxCell>
        <mxCell id="u2964-6fBKXhcLyn3xb5-88" value="" style="endArrow=none;dashed=1;html=1;rounded=0;entryX=0.5;entryY=0;entryDx=0;entryDy=0;entryPerimeter=0;" edge="1" parent="1" source="u2964-6fBKXhcLyn3xb5-70" target="u2964-6fBKXhcLyn3xb5-33">
          <mxGeometry width="50" height="50" relative="1" as="geometry">
            <mxPoint x="510" y="-370" as="sourcePoint" />
            <mxPoint x="560" y="-420" as="targetPoint" />
          </mxGeometry>
        </mxCell>
        <mxCell id="u2964-6fBKXhcLyn3xb5-89" value="" style="endArrow=none;dashed=1;html=1;rounded=0;entryX=0.5;entryY=0;entryDx=0;entryDy=0;entryPerimeter=0;" edge="1" parent="1" source="u2964-6fBKXhcLyn3xb5-66" target="u2964-6fBKXhcLyn3xb5-33">
          <mxGeometry width="50" height="50" relative="1" as="geometry">
            <mxPoint x="510" y="-370" as="sourcePoint" />
            <mxPoint x="560" y="-420" as="targetPoint" />
          </mxGeometry>
        </mxCell>
        <mxCell id="u2964-6fBKXhcLyn3xb5-90" value="" style="endArrow=none;dashed=1;html=1;rounded=0;exitX=0.5;exitY=0;exitDx=0;exitDy=0;exitPerimeter=0;" edge="1" parent="1" source="u2964-6fBKXhcLyn3xb5-32" target="u2964-6fBKXhcLyn3xb5-68">
          <mxGeometry width="50" height="50" relative="1" as="geometry">
            <mxPoint x="510" y="-370" as="sourcePoint" />
            <mxPoint x="560" y="-420" as="targetPoint" />
          </mxGeometry>
        </mxCell>
        <mxCell id="u2964-6fBKXhcLyn3xb5-91" value="" style="endArrow=none;dashed=1;html=1;rounded=0;exitX=0.5;exitY=0;exitDx=0;exitDy=0;exitPerimeter=0;" edge="1" parent="1" source="u2964-6fBKXhcLyn3xb5-32" target="u2964-6fBKXhcLyn3xb5-67">
          <mxGeometry width="50" height="50" relative="1" as="geometry">
            <mxPoint x="510" y="-370" as="sourcePoint" />
            <mxPoint x="560" y="-420" as="targetPoint" />
          </mxGeometry>
        </mxCell>
        <mxCell id="u2964-6fBKXhcLyn3xb5-94" value="" style="endArrow=none;dashed=1;html=1;rounded=0;entryX=0.5;entryY=1;entryDx=0;entryDy=0;entryPerimeter=0;" edge="1" parent="1" source="u2964-6fBKXhcLyn3xb5-63" target="u2964-6fBKXhcLyn3xb5-35">
          <mxGeometry width="50" height="50" relative="1" as="geometry">
            <mxPoint x="560" y="1210" as="sourcePoint" />
            <mxPoint x="610" y="1160" as="targetPoint" />
          </mxGeometry>
        </mxCell>
        <mxCell id="u2964-6fBKXhcLyn3xb5-95" value="" style="endArrow=none;dashed=1;html=1;rounded=0;entryX=0.5;entryY=1;entryDx=0;entryDy=0;entryPerimeter=0;" edge="1" parent="1" source="u2964-6fBKXhcLyn3xb5-64" target="u2964-6fBKXhcLyn3xb5-35">
          <mxGeometry width="50" height="50" relative="1" as="geometry">
            <mxPoint x="560" y="1210" as="sourcePoint" />
            <mxPoint x="610" y="1160" as="targetPoint" />
          </mxGeometry>
        </mxCell>
        <mxCell id="u2964-6fBKXhcLyn3xb5-96" value="" style="endArrow=none;dashed=1;html=1;rounded=0;entryX=0.5;entryY=1;entryDx=0;entryDy=0;entryPerimeter=0;" edge="1" parent="1" source="u2964-6fBKXhcLyn3xb5-60" target="u2964-6fBKXhcLyn3xb5-35">
          <mxGeometry width="50" height="50" relative="1" as="geometry">
            <mxPoint x="560" y="1210" as="sourcePoint" />
            <mxPoint x="890" y="960" as="targetPoint" />
          </mxGeometry>
        </mxCell>
        <mxCell id="u2964-6fBKXhcLyn3xb5-97" value="" style="endArrow=none;dashed=1;html=1;rounded=0;entryX=0.5;entryY=1;entryDx=0;entryDy=0;entryPerimeter=0;" edge="1" parent="1" source="u2964-6fBKXhcLyn3xb5-62" target="u2964-6fBKXhcLyn3xb5-34">
          <mxGeometry width="50" height="50" relative="1" as="geometry">
            <mxPoint x="560" y="1210" as="sourcePoint" />
            <mxPoint x="220" y="950" as="targetPoint" />
          </mxGeometry>
        </mxCell>
        <mxCell id="u2964-6fBKXhcLyn3xb5-98" value="" style="endArrow=none;dashed=1;html=1;rounded=0;entryX=0.5;entryY=1;entryDx=0;entryDy=0;entryPerimeter=0;" edge="1" parent="1" source="u2964-6fBKXhcLyn3xb5-61" target="u2964-6fBKXhcLyn3xb5-34">
          <mxGeometry width="50" height="50" relative="1" as="geometry">
            <mxPoint x="560" y="1210" as="sourcePoint" />
            <mxPoint x="610" y="1160" as="targetPoint" />
          </mxGeometry>
        </mxCell>
        <mxCell id="u2964-6fBKXhcLyn3xb5-99" value="" style="endArrow=none;dashed=1;html=1;rounded=0;entryX=0.5;entryY=1;entryDx=0;entryDy=0;entryPerimeter=0;" edge="1" parent="1" source="u2964-6fBKXhcLyn3xb5-65" target="u2964-6fBKXhcLyn3xb5-34">
          <mxGeometry width="50" height="50" relative="1" as="geometry">
            <mxPoint x="560" y="1210" as="sourcePoint" />
            <mxPoint x="610" y="1160" as="targetPoint" />
          </mxGeometry>
        </mxCell>
        <mxCell id="u2964-6fBKXhcLyn3xb5-100" value="VLAN 10&lt;div&gt;&lt;br&gt;&lt;div&gt;192.168.10.0&lt;/div&gt;&lt;div&gt;&lt;br&gt;&lt;/div&gt;&lt;/div&gt;" style="text;html=1;align=center;verticalAlign=middle;whiteSpace=wrap;rounded=0;" vertex="1" parent="1">
          <mxGeometry x="6.5" y="-410" width="75" height="30" as="geometry" />
        </mxCell>
        <mxCell id="u2964-6fBKXhcLyn3xb5-101" value="VLAN 20&lt;div&gt;&lt;br&gt;&lt;div&gt;192.168.10.64&lt;/div&gt;&lt;div&gt;&lt;br&gt;&lt;/div&gt;&lt;/div&gt;" style="text;html=1;align=center;verticalAlign=middle;whiteSpace=wrap;rounded=0;" vertex="1" parent="1">
          <mxGeometry x="181" y="-410" width="75" height="30" as="geometry" />
        </mxCell>
        <mxCell id="u2964-6fBKXhcLyn3xb5-102" value="VLAN 60&lt;div&gt;&lt;br&gt;&lt;div&gt;192.168.11.64&lt;/div&gt;&lt;div&gt;&lt;br&gt;&lt;/div&gt;&lt;/div&gt;" style="text;html=1;align=center;verticalAlign=middle;whiteSpace=wrap;rounded=0;" vertex="1" parent="1">
          <mxGeometry x="1014.5" y="-410" width="75" height="30" as="geometry" />
        </mxCell>
        <mxCell id="u2964-6fBKXhcLyn3xb5-103" value="VLAN 50&lt;div&gt;&lt;br&gt;&lt;div&gt;192.168.11.0&lt;/div&gt;&lt;div&gt;&lt;br&gt;&lt;/div&gt;&lt;/div&gt;" style="text;html=1;align=center;verticalAlign=middle;whiteSpace=wrap;rounded=0;" vertex="1" parent="1">
          <mxGeometry x="848.5" y="-410" width="75" height="30" as="geometry" />
        </mxCell>
        <mxCell id="u2964-6fBKXhcLyn3xb5-104" value="VLAN 40&lt;div&gt;&lt;br&gt;&lt;div&gt;192.168.10.192&lt;/div&gt;&lt;div&gt;&lt;br&gt;&lt;/div&gt;&lt;/div&gt;" style="text;html=1;align=center;verticalAlign=middle;whiteSpace=wrap;rounded=0;" vertex="1" parent="1">
          <mxGeometry x="635.5" y="-410" width="75" height="30" as="geometry" />
        </mxCell>
        <mxCell id="u2964-6fBKXhcLyn3xb5-105" value="&lt;div&gt;&lt;div&gt;VLAN 30&lt;div&gt;&lt;br&gt;&lt;div&gt;192.168.10.128&lt;/div&gt;&lt;div&gt;&lt;br&gt;&lt;/div&gt;&lt;/div&gt;&lt;/div&gt;&lt;/div&gt;" style="text;html=1;align=center;verticalAlign=middle;whiteSpace=wrap;rounded=0;" vertex="1" parent="1">
          <mxGeometry x="365" y="-410" width="75" height="30" as="geometry" />
        </mxCell>
        <mxCell id="u2964-6fBKXhcLyn3xb5-106" value="VLAN 70&lt;div&gt;&lt;br&gt;&lt;div&gt;192.168.11.128&lt;/div&gt;&lt;div&gt;&lt;br&gt;&lt;/div&gt;&lt;/div&gt;" style="text;html=1;align=center;verticalAlign=middle;whiteSpace=wrap;rounded=0;" vertex="1" parent="1">
          <mxGeometry x="4.5" y="1290" width="75" height="30" as="geometry" />
        </mxCell>
        <mxCell id="u2964-6fBKXhcLyn3xb5-107" value="VLAN 120&lt;div&gt;&lt;br&gt;&lt;div&gt;192.168.12.192&lt;/div&gt;&lt;div&gt;&lt;br&gt;&lt;/div&gt;&lt;/div&gt;" style="text;html=1;align=center;verticalAlign=middle;whiteSpace=wrap;rounded=0;" vertex="1" parent="1">
          <mxGeometry x="1014.5" y="1290" width="75" height="30" as="geometry" />
        </mxCell>
        <mxCell id="u2964-6fBKXhcLyn3xb5-108" value="VLAN 110&lt;div&gt;&lt;br&gt;&lt;div&gt;192.168.12.128&lt;/div&gt;&lt;div&gt;&lt;br&gt;&lt;/div&gt;&lt;/div&gt;" style="text;html=1;align=center;verticalAlign=middle;whiteSpace=wrap;rounded=0;" vertex="1" parent="1">
          <mxGeometry x="848.5" y="1290" width="75" height="30" as="geometry" />
        </mxCell>
        <mxCell id="u2964-6fBKXhcLyn3xb5-109" value="VLAN 100&lt;div&gt;&lt;br&gt;&lt;div&gt;192.168.12.64&lt;/div&gt;&lt;div&gt;&lt;br&gt;&lt;/div&gt;&lt;/div&gt;" style="text;html=1;align=center;verticalAlign=middle;whiteSpace=wrap;rounded=0;" vertex="1" parent="1">
          <mxGeometry x="626.5" y="1290" width="75" height="30" as="geometry" />
        </mxCell>
        <mxCell id="u2964-6fBKXhcLyn3xb5-110" value="VLAN 90&lt;div&gt;&lt;br&gt;&lt;div&gt;192.168.12.0&lt;/div&gt;&lt;div&gt;&lt;br&gt;&lt;/div&gt;&lt;/div&gt;" style="text;html=1;align=center;verticalAlign=middle;whiteSpace=wrap;rounded=0;" vertex="1" parent="1">
          <mxGeometry x="356.5" y="1290" width="75" height="30" as="geometry" />
        </mxCell>
        <mxCell id="u2964-6fBKXhcLyn3xb5-111" value="VLAN 80&lt;div&gt;&lt;br&gt;&lt;div&gt;192.168.11.192&lt;/div&gt;&lt;div&gt;&lt;br&gt;&lt;/div&gt;&lt;/div&gt;" style="text;html=1;align=center;verticalAlign=middle;whiteSpace=wrap;rounded=0;" vertex="1" parent="1">
          <mxGeometry x="181" y="1290" width="75" height="30" as="geometry" />
        </mxCell>
        <mxCell id="u2964-6fBKXhcLyn3xb5-113" value="&lt;div style=&quot;font-size: 20px;&quot;&gt;&lt;font style=&quot;font-size: 20px;&quot; face=&quot;Google Sans, Arial, sans-serif&quot; color=&quot;#ffffff&quot;&gt;&lt;span style=&quot;font-size: 20px; font-weight: 500; text-wrap: wrap; background-color: rgb(26, 26, 26);&quot;&gt;ACCESS LAYER&lt;/span&gt;&lt;/font&gt;&lt;/div&gt;" style="text;strokeColor=none;fillColor=none;html=1;fontSize=20;fontStyle=1;verticalAlign=middle;align=center;" vertex="1" parent="1">
          <mxGeometry x="496" y="-510" width="100" height="40" as="geometry" />
        </mxCell>
        <mxCell id="u2964-6fBKXhcLyn3xb5-114" value="&lt;div style=&quot;font-size: 20px;&quot;&gt;&lt;font style=&quot;font-size: 20px;&quot; face=&quot;Google Sans, Arial, sans-serif&quot; color=&quot;#ffffff&quot;&gt;&lt;span style=&quot;font-size: 20px; font-weight: 500; text-wrap: wrap;&quot;&gt;DISTRIBUTION LAYER&lt;/span&gt;&lt;/font&gt;&lt;/div&gt;" style="text;strokeColor=none;fillColor=none;html=1;fontSize=20;fontStyle=1;verticalAlign=middle;align=center;labelBackgroundColor=none;" vertex="1" parent="1">
          <mxGeometry x="445" y="-140" width="210" height="67" as="geometry" />
        </mxCell>
        <mxCell id="u2964-6fBKXhcLyn3xb5-116" value="CORE LAYER" style="text;strokeColor=none;fillColor=none;html=1;fontSize=20;fontStyle=1;verticalAlign=middle;align=center;" vertex="1" parent="1">
          <mxGeometry x="506" y="460" width="100" height="40" as="geometry" />
        </mxCell>
        <mxCell id="u2964-6fBKXhcLyn3xb5-120" value="&lt;div style=&quot;font-size: 20px;&quot;&gt;&lt;font style=&quot;font-size: 20px;&quot; face=&quot;Google Sans, Arial, sans-serif&quot; color=&quot;#ffffff&quot;&gt;&lt;span style=&quot;font-size: 20px; font-weight: 500; text-wrap: wrap;&quot;&gt;DISTRIBUTION LAYER&lt;/span&gt;&lt;/font&gt;&lt;/div&gt;" style="text;strokeColor=none;fillColor=none;html=1;fontSize=20;fontStyle=1;verticalAlign=middle;align=center;labelBackgroundColor=none;" vertex="1" parent="1">
          <mxGeometry x="451" y="910" width="210" height="67" as="geometry" />
        </mxCell>
        <mxCell id="u2964-6fBKXhcLyn3xb5-121" value="&lt;div style=&quot;font-size: 20px;&quot;&gt;&lt;font style=&quot;font-size: 20px;&quot; face=&quot;Google Sans, Arial, sans-serif&quot; color=&quot;#ffffff&quot;&gt;&lt;span style=&quot;font-size: 20px; font-weight: 500; text-wrap: wrap; background-color: rgb(26, 26, 26);&quot;&gt;ACCESS LAYER&lt;/span&gt;&lt;/font&gt;&lt;/div&gt;" style="text;strokeColor=none;fillColor=none;html=1;fontSize=20;fontStyle=1;verticalAlign=middle;align=center;" vertex="1" parent="1">
          <mxGeometry x="496" y="1370" width="100" height="40" as="geometry" />
        </mxCell>
      </root>
    </mxGraphModel>
  </diagram>
</mxfile>
